
<svg fill="#000000" width="151px" height="151px" viewBox="-1.9 -1.9 22.80 22.80" xmlns="http://www.w3.org/2000/svg" className="cf-icon-svg" stroke="#000000" strokeWidth="0.00019" transform="matrix(1, 0, 0, 1, 0, 0)rotate(0)">

<g id="SVGRepo_bgCarrier" strokeWidth="0" transform="translate(0,0), scale(1)">

<path transform="translate(-1.9, -1.9), scale(0.7125)" d="M16,28.252743156005938C18.499217408103185,28.010117872272453,21.15029167745923,28.651855202863885,23.33190654872444,27.408669281632772C25.557585612188817,26.14037352818794,27.05279386030772,23.85560818069025,27.9360633331023,21.451017477435528C28.78112921738053,19.150431267267983,28.594661891556083,16.66386873187023,28.165092917004138,14.250923694102813C27.74712311452997,11.903132720910175,27.04680478626248,9.583198779480641,25.50013442910815,7.768086657355612C23.946106588556866,5.944340079129205,21.659454798953096,5.118795034139877,19.499604018209876,4.081443254017085C16.918165277559268,2.8416075687155393,14.272644911531998,0.01010240342955604,11.626332800397645,1.104657431165755C8.895565195059401,2.234144538686446,9.485068808565243,6.470646507710044,7.820246742492271,8.912203455384365C6.4325019350427315,10.947410727846643,3.8009880111955496,11.86158925990766,2.7669967413161363,14.09738136703651C1.534036786696422,16.763402072671855,0.5486538380781886,19.84598268367148,1.4744963493028127,22.633575246615628C2.4232290827206286,25.49008732057411,4.885132245584857,27.841000768923898,7.692343437685116,28.92696593921071C10.337101556446123,29.95008639729741,13.17751168763955,28.52675174181386,16,28.252743156005938" fill="#7ed0ec" strokewidth="0"/>

</g>

<g id="SVGRepo_tracerCarrier" strokeLinecap="round" strokeLinejoin="round" stroke="#CCCCCC" strokeWidth="0.49400000000000005"/>

<g id="SVGRepo_iconCarrier">

<path d="M15.917 17.5H.083V1.666h15.834zM5.77 6.427a.96.96 0 0 0-1.032-.96.962.962 0 1 0-.025 1.92h.013a.963.963 0 0 0 1.044-.96zm-.123 1.719H3.803v5.552h1.845zm6.658 2.368c0-1.705-.91-2.5-2.125-2.5a1.832 1.832 0 0 0-1.663.917v-.786H6.67c.025.52 0 5.554 0 5.554h1.848v-3.102a1.264 1.264 0 0 1 .06-.45 1.011 1.011 0 0 1 .946-.676c.67 0 .936.51.936 1.256V13.7h1.846zm-3.8-1.564.013-.019v.019z"/>

</g>

</svg>