
<svg fill="#000000" height="800px" width="800px" version="1.1" id="Layer_1" xmlns="http://www.w3.org/2000/svg" viewBox="-51.2 -51.2 614.40 614.40" >

<g id="SVGRepo_bgCarrier" strokeWidth="0">

<path transform="translate(-51.2, -51.2), scale(19.2)" d="M16,27.199701024219394C17.46558035821899,26.52743458568024,17.995408902324193,24.372971318857722,19.56659780167119,24.01070982027943C21.668540265992775,23.52607*5014517403,24.591959954691028,26.62961961275791,25.90274579201826,24.916472360786656C27.283288552928735,23.11215546192154,23.75138087963416,20.794953513805027,23.765340915251674,18.52311221132853C23.77402408617772,17.110022238871117,25.560168553863008,16.306938759159326,25.96397101775144,14.952744445969872C26.436233585997556,13.368961924950304,27.22032694505431,11.424941798090531,26.289040057803078,10.059619952924553C25.32907259936945,8.65225068831864,22.923574840678963,9.366666958865707,21.507599602495258,8.419439481931306C20.16308813310463,7.520018240290198,19.716684562111368,5.693335626364022,18.386359491997894,4.773061281907021C16.822810851882785,3.6914506800066644,14.923715913789264,1.9323410406660892,13.161494958367058,2.6458837152272547C11.23646435913054,3.4253498078105267,12.095678761468552,7.139574986101013,10.239759629064109,8.07170929587567C7.851576934899171,9.271172671393103,4.573914548649226,6.675959035217922,2.309968470583925,8.096056611277156C0.4310249215759274,9.274654991048916,-0.7146458050118993,12.342044518974113,0.24091000232248838,14.343652897311122C1.4663203287553617,16.91052712638522,5.859868175495755,16.407809568340262,7.4149336116134155,18.7894571630539C8.44164453721804,20.3619077812975,6.149629503560155,22.545606731514066,6.756637324627489,24.322761135817103C7.34558078486509,26.047027986953147,8.862977745311781,27.58097682986277,10.60273111828305,28.12246438698513C12.364716299153349,28.670871457836668,14.322686030274298,27.969090353447136,16,27.199701024219394" fill="#7ed0ec" strokeWidth="0"/>

</g>

<g id="SVGRepo_tracerCarrier" strokeLinecap="round" strokeLinejoin="round"/>

<g id="SVGRepo_iconCarrier"> <path d="M-143,145v512h512V145H-143z M215.2,361.2c0.1,2.2,0.1,4.5,0.1,6.8c0,69.5-52.9,149.7-149.7,149.7 c-29.7,0-57.4-8.7-80.6-23.6c4.1,0.5,8.3,0.7,12.6,0.7c24.6,0,47.3-8.4,65.3-22.5c-23-0.4-42.5-15.6-49.1-36.5 c3.2,0.6,6.5,0.9,9.9,0.9c4.8,0,9.5-0.6,13.9-1.9C13.5,430-4.6,408.7-4.6,383.2v-0.6c7.1,3.9,15.2,6.3,23.8,6.6 c-14.1-9.4-23.4-25.6-23.4-43.8c0-9.6,2.6-18.7,7.1-26.5c26,31.9,64.7,52.8,108.4,55c-0.9-3.8-1.4-7.8-1.4-12 c0-29,23.6-52.6,52.6-52.6c15.1,0,28.8,6.4,38.4,16.6c12-2.4,23.2-6.7,33.4-12.8c-3.9,12.3-12.3,22.6-23.1,29.1 c10.6-1.3,20.8-4.1,30.2-8.3C234.4,344.5,225.5,353.7,215.2,361.2z"/> </g>

</svg>